<svg width="283" height="346" viewBox="0 0 283 346" fill="none" xmlns="http://www.w3.org/2000/svg">
<path d="M138.836 520.724C132.67 526.89 123.14 526.89 116.974 520.724L16.6311 420.942C10.4648 414.776 10.4648 405.246 16.6311 399.08L229.088 186.062C235.255 179.895 244.784 179.895 250.951 186.062L351.293 286.404C357.46 292.571 357.46 302.1 351.293 308.267L138.836 520.724Z" fill="#FFC200"/>
<path d="M131.996 332.015C140.307 323.689 146.69 316.585 146.252 316.148C145.814 315.711 138.721 322.105 130.409 330.431C122.097 338.757 115.714 345.861 116.153 346.298C116.591 346.736 123.684 340.341 131.996 332.015Z" fill="#FFDA00"/>
<path d="M130.242 331.979C138.576 340.284 145.687 346.662 146.124 346.223C146.561 345.784 140.159 338.696 131.825 330.391C123.49 322.085 116.379 315.708 115.942 316.147C115.505 316.585 121.907 323.674 130.242 331.979Z" fill="#FFDA00"/>
<path d="M233.679 158.804C233.679 180.666 232.558 198.604 231.437 198.604C230.316 198.604 229.195 180.666 229.195 158.804C229.195 136.941 230.316 119.003 231.437 119.003C232.558 119.003 233.679 136.941 233.679 158.804Z" fill="#FFDA00"/>
<path d="M231.435 161.047C253.416 161.047 271.236 160.043 271.236 158.804C271.236 157.566 253.416 156.562 231.435 156.562C209.454 156.562 191.634 157.566 191.634 158.804C191.634 160.043 209.454 161.047 231.435 161.047Z" fill="#FFDA00"/>
</svg>
